Patient4_TMGait_0pt4_03_right_09_GRF.mot
version=1
nRows=45
nColumns=19
inDegrees=no
endheader
time	F1x	F1y	F1z	M1x	M1y	M1z	F2x	F2y	F2z	M2x	M2y	M2z	EC1x	EC1y	EC1z	EC2x	EC2y	EC2z
10.77	9.5001	710.25	52.6828	-247.384	-51.5532	747.6917	27.3137	12.2078	-13.3778	6.0474	2.8722	10.331	-0.0592	0.0182	-0.0073	-0.0462	0.0165	0.9585
10.7831	8.4191	715.261	53.5878	-249.1653	-51.9599	750.7534	18.1014	8.3899	-9.0877	4.1758	2.0842	7.1967	-0.0592	0.0182	-0.0073	-0.0462	0.0165	0.9585
10.7963	7.7912	721.6897	54.1402	-251.4027	-51.9057	754.8435	10.3588	5.2117	-5.4362	2.6006	1.4023	4.5807	-0.0592	0.0182	-0.0073	-0.0462	0.0165	0.9585
10.8094	7.6536	729.4879	54.2769	-254.0621	-51.3624	760.0211	4.5067	2.8433	-2.6479	1.4134	0.87611	2.6335	-0.0592	0.0182	-0.0073	-0.0462	0.0165	0.9585
10.8226	7.9472	738.4323	54.0238	-257.0417	-50.3874	766.1751	0.48445	1.2528	-0.71558	0.60583	0.50936	1.3344	-0.0592	0.0182	-0.0073	-0.0462	0.0165	0.9585
10.8357	8.5777	748.1297	53.5061	-260.1698	-49.1267	773.0319	-1.9862	0.30659	0.48296	0.11613	0.28388	0.56613	-0.0592	0.0182	-0.0073	-0.0462	0.0165	0.9585
10.8489	9.4085	758.0665	52.8709	-263.2259	-47.7539	780.2045	-3.291	-0.15782	1.1186	-0.13593	0.17177	0.20154	-0.0592	0.0182	-0.0073	-0.0462	0.0165	0.9585
10.862	10.2944	767.6659	52.2994	-265.9644	-46.482	787.2223	-3.7971	-0.34423	1.36	-0.24234	0.14186	0.052644	-0.0592	0.0182	-0.0073	-0.0462	0.0165	0.9585
10.8751	11.109	776.3634	51.9352	-268.1515	-45.4879	793.6123	-3.8334	-0.41913	1.3584	-0.28224	0.16643	-0.028046	-0.0592	0.0182	-0.0073	-0.0462	0.0165	0.9585
10.8883	11.7677	783.6423	51.9097	-269.5906	-44.9303	798.9142	-3.6316	-0.52521	1.22	-0.32266	0.23124	-0.18193	-0.0592	0.0182	-0.0073	-0.0462	0.0165	0.9585
10.9014	12.2281	789.0812	52.2887	-270.1432	-44.8936	802.7227	-3.3586	-0.79093	1.0251	-0.41992	0.32282	-0.54411	-0.0592	0.0182	-0.0073	-0.0462	0.0165	0.9585
10.9146	12.5055	792.3408	53.1102	-269.7176	-45.4123	804.6758	-3.1147	-1.3127	0.82079	-0.61592	0.43235	-1.2128	-0.0592	0.0182	-0.0073	-0.0462	0.0165	0.9585
10.9277	12.6492	793.1789	54.346	-268.2737	-46.4392	804.4985	-2.9082	-2.1398	0.63454	-0.93303	0.53707	-2.2415	-0.0592	0.0182	-0.0073	-0.0462	0.0165	0.9585
10.9409	12.7051	791.5261	55.9271	-265.8462	-47.8836	802.0746	-2.7133	-3.2589	0.47754	-1.3678	0.61203	-3.6047	-0.0592	0.0182	-0.0073	-0.0462	0.0165	0.9585
10.954	12.727	787.5859	57.7457	-262.5753	-49.6186	797.5269	-2.4432	-4.5729	0.36492	-1.8805	0.60638	-5.1878	-0.0592	0.0182	-0.0073	-0.0462	0.0165	0.9585
10.9671	12.7756	781.8651	59.6932	-258.7054	-51.5154	791.2649	-1.966	-5.8242	0.30243	-2.3722	0.46222	-6.681	-0.0592	0.0182	-0.0073	-0.0462	0.0165	0.9585
10.9803	12.9298	775.0856	61.6777	-254.5493	-53.4499	783.8985	-1.1156	-6.5952	0.30462	-2.6788	0.10392	-7.5951	-0.0592	0.0182	-0.0073	-0.0462	0.0165	0.9585
10.9934	13.2779	768.0609	63.6382	-250.4393	-55.3187	776.1297	0.269	-6.2535	0.38799	-2.5497	-0.54442	-7.1948	-0.0592	0.0182	-0.0073	-0.0462	0.0165	0.9585
11.0066	13.9246	761.5092	65.5209	-246.6606	-57.0192	768.5703	2.3372	-3.8981	0.57024	-1.6299	-1.5529	-4.4385	-0.0592	0.0182	-0.0073	-0.0462	0.0165	0.9585
11.0197	14.9616	755.8815	67.2694	-243.3919	-58.4529	761.5975	5.1523	1.5966	0.87001	0.5275	-2.9597	1.9789	-0.0592	0.0182	-0.0073	-0.0462	0.0165	0.9585
11.0329	16.4422	751.2441	68.7988	-240.6705	-59.5086	755.2445	8.6014	11.4907	1.3028	4.424	-4.7325	13.5235	-0.0592	0.0182	-0.0073	-0.0462	0.0165	0.9585
11.046	18.3711	747.2328	69.998	-238.3804	-60.0691	749.1604	12.341	26.9849	1.8647	10.5367	-6.7251	31.5886	-0.0592	0.0182	-0.0073	-0.0462	0.0165	0.9585
11.0591	20.6819	743.0663	70.7219	-236.2603	-60.0099	742.6352	15.6354	48.8363	2.5214	19.1677	-8.6061	57.0667	-0.0592	0.0182	-0.0073	-0.0462	0.0165	0.9585
11.0723	23.2649	737.6041	70.8095	-233.9237	-59.211	734.6388	17.2359	76.7596	3.1967	30.2128	-9.7989	89.6351	-0.0592	0.0182	-0.0073	-0.0462	0.0165	0.9585
11.0854	25.9796	729.5177	70.085	-230.921	-57.5578	723.9844	15.6505	109.0193	3.6959	42.9859	-9.5149	127.3266	-0.0592	0.0182	-0.0073	-0.0462	0.0165	0.9585
11.0986	28.696	717.5886	68.4369	-226.8357	-55.0011	709.5918	10.4703	142.6852	3.7665	56.2997	-7.308	166.8521	-0.0592	0.0182	-0.0073	-0.0462	0.0165	0.9585
11.1117	31.3076	701.0515	65.8732	-221.3908	-51.5988	690.8163	2.9444	173.7878	3.252	68.5765	-3.5447	203.6275	-0.0592	0.0182	-0.0073	-0.0462	0.0165	0.9585
11.1249	33.7698	679.789	62.5826	-214.5145	-47.5592	667.6173	-4.9894	199.0107	2.1808	78.5074	0.96995	233.6579	-0.0592	0.0182	-0.0073	-0.0462	0.0165	0.9585
11.138	36.0735	654.3369	58.8444	-206.3498	-43.1575	640.569	-12.2738	217.5616	0.563	85.7698	5.792	255.9204	-0.0592	0.0182	-0.0073	-0.0462	0.0165	0.9585
11.1511	38.2184	625.7198	54.9321	-197.2039	-38.661	610.7012	-18.5117	231.0975	-1.3072	91.027	10.4628	272.3028	-0.0592	0.0182	-0.0073	-0.0462	0.0165	0.9585
11.1643	40.1952	595.0596	50.9923	-187.4308	-34.221	579.1204	-23.6939	242.304	-3.323	95.3554	14.8569	285.9226	-0.0592	0.0182	-0.0073	-0.0462	0.0165	0.9585
11.1774	41.9355	563.2379	47.0206	-177.3187	-29.8633	546.6941	-27.8778	253.853	-5.2444	99.8287	18.7572	299.7958	-0.0592	0.0182	-0.0073	-0.0462	0.0165	0.9585
11.1906	43.3149	530.6667	42.9218	-167.0119	-25.5502	513.831	-31.1014	267.8828	-7.0772	105.296	22.1863	316.2728	-0.0592	0.0182	-0.0073	-0.0462	0.0165	0.9585
11.2037	44.1208	497.2613	38.6152	-156.4908	-21.2801	480.4698	-33.4663	285.9946	-8.8081	112.3831	25.1844	337.0798	-0.0592	0.0182	-0.0073	-0.0462	0.0165	0.9585
11.2169	44.1184	462.5151	34.1062	-145.5923	-17.1291	446.1277	-35.0928	309.317	-10.6375	121.5047	28.01	363.417	-0.0592	0.0182	-0.0073	-0.0462	0.0165	0.9585
11.23	43.0815	425.7516	29.5111	-134.0849	-13.2623	410.1534	-36.0621	338.4534	-12.8039	132.8511	30.9566	395.8812	-0.0592	0.0182	-0.0073	-0.0462	0.0165	0.9585
11.2431	40.8322	386.4138	25.0237	-121.7657	-9.8951	371.9912	-36.4716	373.3436	-15.722	146.3427	34.4935	434.3376	-0.0592	0.0182	-0.0073	-0.0462	0.0165	0.9585
11.2563	37.2592	344.3407	20.8521	-108.5576	-7.24	331.4466	-36.461	413.3452	-19.6985	161.6791	38.9915	478.0015	-0.0592	0.0182	-0.0073	-0.0462	0.0165	0.9585
11.2694	32.361	299.9793	17.1532	-94.5867	-5.4354	288.9001	-36.2279	457.4967	-24.9134	178.4483	44.6915	525.7575	-0.0592	0.0182	-0.0073	-0.0462	0.0165	0.9585
11.2826	26.2874	254.4665	14.0093	-80.2119	-4.5082	245.375	-35.9586	504.729	-31.3058	196.2182	51.5732	576.3842	-0.0592	0.0182	-0.0073	-0.0462	0.0165	0.9585
11.2957	19.3691	209.4842	11.4261	-65.9777	-4.3602	202.4059	-35.7415	553.873	-38.645	214.5376	59.3969	628.566	-0.0592	0.0182	-0.0073	-0.0462	0.0165	0.9585
11.3089	12.1564	166.9227	9.3656	-52.5007	-4.7831	161.7281	-35.5512	603.4933	-46.5176	232.87	67.6963	680.7102	-0.0592	0.0182	-0.0073	-0.0462	0.0165	0.9585
11.322	5.3142	128.4528	7.7604	-40.325	-5.5018	124.892	-35.309	651.7174	-54.4258	250.5307	75.9067	730.7761	-0.0592	0.0182	-0.0073	-0.0462	0.0165	0.9585
11.3351	-0.52031	95.1362	6.4927	-29.7977	-6.204	92.891	-34.9465	696.3213	-61.8443	266.7151	83.4452	776.3889	-0.0592	0.0182	-0.0073	-0.0462	0.0165	0.9585
11.3483	-4.8941	67.3626	5.4225	-21.046	-6.6168	66.1042	-34.4183	735.046	-68.3044	280.6167	89.8055	815.1808	-0.0592	0.0182	-0.0073	-0.0462	0.0165	0.9585
